<svg id="visual" viewBox="0 0 520 600" width="520" height="600" xmlns="http://www.w3.org/2000/svg" xmlns:xlink="http://www.w3.org/1999/xlink" version="1.1"><rect x="0" y="0" width="520" height="600" fill="#018F7D"></rect><defs><linearGradient id="grad1_0" x1="0%" y1="100%" x2="100%" y2="0%"><stop offset="30%" stop-color="#018f7d" stop-opacity="1"></stop><stop offset="70%" stop-color="#018f7d" stop-opacity="1"></stop></linearGradient></defs><defs><linearGradient id="grad2_0" x1="0%" y1="100%" x2="100%" y2="0%"><stop offset="30%" stop-color="#018f7d" stop-opacity="1"></stop><stop offset="70%" stop-color="#018f7d" stop-opacity="1"></stop></linearGradient></defs><g transform="translate(520, 600)"><path d="M-357.3 0C-343.8 -20.8 -330.2 -41.6 -325.6 -64.8C-321 -88 -325.3 -113.6 -311.3 -129C-297.4 -144.3 -265.3 -149.4 -253.6 -169.4C-241.9 -189.5 -250.7 -224.5 -237.6 -237.6C-224.4 -250.7 -189.4 -241.9 -170 -254.4C-150.7 -266.9 -147.1 -300.7 -132.8 -320.6C-118.5 -340.5 -93.6 -346.6 -69.7 -350.4C-45.8 -354.2 -22.9 -355.8 0 -357.3L0 0Z" fill="#018E4C"></path></g><g transform="translate(0, 0)"><path d="M357.3 0C343.9 20.6 330.6 41.2 329.5 65.6C328.5 89.9 339.8 118.2 328 135.9C316.2 153.6 281.3 160.7 261.9 175C242.5 189.3 238.5 210.6 229.1 229.1C219.7 247.6 205 263.3 190 284.4C175 305.4 159.6 331.9 136.7 330.1C113.8 328.3 83.4 298.3 59.3 298.2C35.3 298 17.6 327.6 0 357.3L0 0Z" fill="#018E4C"></path></g></svg>