<svg id="visual" viewBox="0 0 520 600" width="520" height="600" xmlns="http://www.w3.org/2000/svg" xmlns:xlink="http://www.w3.org/1999/xlink" version="1.1"><rect x="0" y="0" width="520" height="600" fill="#DBDBDB"></rect><defs><linearGradient id="grad1_0" x1="0%" y1="0%" x2="100%" y2="100%"><stop offset="30%" stop-color="#dbdbdb" stop-opacity="1"></stop><stop offset="70%" stop-color="#dbdbdb" stop-opacity="1"></stop></linearGradient></defs><defs><linearGradient id="grad2_0" x1="0%" y1="0%" x2="100%" y2="100%"><stop offset="30%" stop-color="#dbdbdb" stop-opacity="1"></stop><stop offset="70%" stop-color="#dbdbdb" stop-opacity="1"></stop></linearGradient></defs><g transform="translate(520, 0)"><path d="M0 357.3C-31.4 355 -62.8 352.7 -91.4 341C-120 329.3 -145.8 308.2 -164 284.1C-182.2 259.9 -192.7 232.8 -215.7 215.7C-238.7 198.5 -274.2 191.3 -298.8 172.5C-323.4 153.7 -337.2 123.2 -345.1 92.5C-353.1 61.8 -355.2 30.9 -357.3 0L0 0Z" fill="#EEEEEE"></path></g><g transform="translate(0, 600)"><path d="M0 -357.3C27.9 -343.1 55.9 -328.9 86.2 -321.7C116.5 -314.4 149.3 -314 171 -296.2C192.7 -278.4 203.5 -243.2 217.8 -217.8C232.1 -192.4 250 -176.8 274.5 -158.5C299.1 -140.2 330.2 -119.3 345.1 -92.5C360 -65.6 358.7 -32.8 357.3 0L0 0Z" fill="#EEEEEE"></path></g></svg>