<svg id="visual" viewBox="0 0 520 600" width="520" height="600" xmlns="http://www.w3.org/2000/svg" xmlns:xlink="http://www.w3.org/1999/xlink" version="1.1"><rect x="0" y="0" width="520" height="600" fill="#FFC5CF"></rect><defs><linearGradient id="grad1_0" x1="0%" y1="100%" x2="100%" y2="0%"><stop offset="30%" stop-color="#ffc5cf" stop-opacity="1"></stop><stop offset="70%" stop-color="#ffc5cf" stop-opacity="1"></stop></linearGradient></defs><defs><linearGradient id="grad2_0" x1="0%" y1="100%" x2="100%" y2="0%"><stop offset="30%" stop-color="#ffc5cf" stop-opacity="1"></stop><stop offset="70%" stop-color="#ffc5cf" stop-opacity="1"></stop></linearGradient></defs><g transform="translate(520, 600)"><path d="M-357.3 0C-337.5 -32.9 -317.7 -65.7 -302.4 -98.3C-287.2 -130.8 -276.5 -163 -256.5 -186.3C-236.4 -209.6 -206.9 -224 -182.8 -251.6C-158.7 -279.2 -140 -320 -110.4 -339.8C-80.8 -359.6 -40.4 -358.5 0 -357.3L0 0Z" fill="#FE7088"></path></g><g transform="translate(0, 0)"><path d="M357.3 0C318.1 25.6 278.9 51.1 273 88.7C267 126.2 294.4 175.8 286.4 208.1C278.4 240.4 235 255.4 201 276.7C167 297.9 142.4 325.3 110.4 339.8C78.5 354.3 39.2 355.8 0 357.3L0 0Z" fill="#FE7088"></path></g></svg>