<svg id="visual" viewBox="0 0 520 600" width="520" height="600" xmlns="http://www.w3.org/2000/svg" xmlns:xlink="http://www.w3.org/1999/xlink" version="1.1"><rect x="0" y="0" width="520" height="600" fill="#ED7A7E"></rect><defs><linearGradient id="grad1_0" x1="0%" y1="0%" x2="100%" y2="100%"><stop offset="30%" stop-color="#ed7a7e" stop-opacity="1"></stop><stop offset="70%" stop-color="#ed7a7e" stop-opacity="1"></stop></linearGradient></defs><defs><linearGradient id="grad2_0" x1="0%" y1="0%" x2="100%" y2="100%"><stop offset="30%" stop-color="#ed7a7e" stop-opacity="1"></stop><stop offset="70%" stop-color="#ed7a7e" stop-opacity="1"></stop></linearGradient></defs><g transform="translate(520, 0)"><path d="M0 357.3C-31.9 337.3 -63.7 317.3 -99.8 307.2C-135.9 297.1 -176.2 297 -201.6 277.5C-227.1 258 -237.7 219.2 -261.3 189.9C-285 160.5 -321.6 140.5 -339.8 110.4C-358 80.3 -357.6 40.2 -357.3 0L0 0Z" fill="#EE2C32"></path></g><g transform="translate(0, 600)"><path d="M0 -357.3C27.5 -326.6 55 -295.9 94.6 -291C134.1 -286.1 185.8 -307.1 210 -289.1C234.3 -271 231.1 -214 245.1 -178.1C259.2 -142.2 290.4 -127.5 311.9 -101.4C333.5 -75.2 345.4 -37.6 357.3 0L0 0Z" fill="#EE2C32"></path></g></svg>