<svg id="visual" viewBox="0 0 520 600" width="520" height="600" xmlns="http://www.w3.org/2000/svg" xmlns:xlink="http://www.w3.org/1999/xlink" version="1.1"><rect x="0" y="0" width="520" height="600" fill="#FC690F"></rect><defs><linearGradient id="grad1_0" x1="0%" y1="100%" x2="100%" y2="0%"><stop offset="30%" stop-color="#fc690f" stop-opacity="1"></stop><stop offset="70%" stop-color="#fc690f" stop-opacity="1"></stop></linearGradient></defs><defs><linearGradient id="grad2_0" x1="0%" y1="100%" x2="100%" y2="0%"><stop offset="30%" stop-color="#fc690f" stop-opacity="1"></stop><stop offset="70%" stop-color="#fc690f" stop-opacity="1"></stop></linearGradient></defs><g transform="translate(520, 600)"><path d="M-357.3 0C-342 -29.2 -326.8 -58.4 -311 -83.3C-295.3 -108.3 -279 -129.1 -266.7 -154C-254.5 -178.9 -246.2 -207.9 -229.8 -229.8C-213.4 -251.7 -188.9 -266.5 -165.5 -286.7C-142.1 -306.8 -119.9 -332.4 -92.5 -345.1C-65.1 -357.8 -32.5 -357.5 0 -357.3L0 0Z" fill="#FDB00E"></path></g><g transform="translate(0, 0)"><path d="M357.3 0C358.5 33.3 359.8 66.5 345.1 92.5C330.4 118.4 299.8 137 282.3 163C264.8 189 260.4 222.3 240.4 240.4C220.4 258.5 184.7 261.5 157 271.9C129.3 282.4 109.5 300.4 84.6 315.9C59.8 331.3 29.9 344.3 0 357.3L0 0Z" fill="#FDB00E"></path></g></svg>